<svg width="429" height="429" viewBox="0 0 429 429" fill="none" xmlns="http://www.w3.org/2000/svg">
<rect width="429" height="429" rx="214.5" fill="white"/>
<path d="M281.458 223.749C284.799 223.749 287.125 223.716 288.435 223.651C289.745 223.52 290.695 223.323 291.285 223.061C292.922 222.603 293.741 221.849 293.741 220.801C293.61 220.67 293.545 220.441 293.545 220.113C292.104 216.772 290.99 213.366 290.204 209.894C289.483 206.356 289.123 202.819 289.123 199.281C289.123 195.678 289.647 191.977 290.695 188.178C291.809 184.312 293.512 180.84 295.805 177.762C298.163 174.617 301.177 172.062 304.845 170.097C308.514 168.066 312.935 167.051 318.111 167.051C320.535 167.051 323.057 167.346 325.677 167.935C328.297 168.459 330.852 169.213 333.342 170.195C335.897 171.112 338.32 172.193 340.613 173.438C342.906 174.683 344.904 175.993 346.607 177.368C348.311 178.679 349.653 180.022 350.636 181.397C351.684 182.707 352.208 183.952 352.208 185.131C352.143 185.131 352.077 185.262 352.012 185.524C352.012 185.786 352.012 185.983 352.012 186.114C351.881 186.245 351.389 186.409 350.538 186.605C349.752 186.736 348.671 186.867 347.295 186.998C345.919 187.064 344.347 187.097 342.578 187.097C340.81 187.097 338.943 186.998 336.977 186.802C332.981 186.474 329.28 186.179 325.874 185.917C322.467 185.655 318.995 185.524 315.458 185.524C314.278 185.524 312.935 185.721 311.429 186.114C309.988 186.442 308.481 186.998 306.909 187.784C305.402 188.571 303.928 189.553 302.487 190.732C301.111 191.912 299.932 193.32 298.949 194.958C298.884 195.285 298.818 195.547 298.753 195.744C298.753 195.94 298.753 196.071 298.753 196.137C298.753 197.513 299.211 198.987 300.128 200.559C301.046 202.065 302.225 203.572 303.666 205.079C305.173 206.586 306.843 208.06 308.677 209.501C310.577 210.876 312.444 212.121 314.278 213.235C316.178 214.283 317.98 215.167 319.683 215.888C321.452 216.543 322.926 216.936 324.105 217.067C326.791 216.478 329.739 215.79 332.949 215.004C336.159 214.217 339.401 213.399 342.677 212.547C345.952 211.63 349.129 210.713 352.208 209.796C355.353 208.813 358.17 207.896 360.659 207.044C361.118 206.782 361.707 206.651 362.428 206.651C363.017 206.651 363.41 206.815 363.607 207.142C363.869 207.405 364 207.699 364 208.027C364 208.158 363.967 208.256 363.902 208.322C363.902 208.387 363.902 208.485 363.902 208.616C363.64 210.189 363.345 211.826 363.017 213.53C362.69 215.233 362.329 216.936 361.936 218.639C361.609 220.277 361.249 221.849 360.856 223.356C360.462 224.797 360.069 226.107 359.676 227.287C358.89 228.007 357.416 228.892 355.255 229.94C353.093 230.922 350.636 231.97 347.885 233.084C345.133 234.198 342.251 235.279 339.237 236.327C336.224 237.375 333.44 238.292 330.885 239.078C328.003 239.995 325.186 240.913 322.434 241.83C319.748 242.681 317.063 243.5 314.377 244.286C311.691 245.072 308.939 245.793 306.123 246.448C303.371 247.103 300.489 247.627 297.475 248.02C296.362 248.151 295.248 248.282 294.134 248.413C293.086 248.479 291.94 248.577 290.695 248.708C289.45 248.774 288.075 248.839 286.568 248.905C285.061 248.905 283.358 248.905 281.458 248.905V223.749Z" fill="url(#paint0_linear_90_8)"/>
<path d="M285.487 248.905C280.901 248.905 277.036 248.348 273.892 247.234C270.747 246.121 268.094 244.549 265.933 242.518C263.836 240.422 262.133 237.899 260.823 234.951C259.578 231.938 258.53 228.564 257.678 224.83C255.32 236.098 251.717 244.712 246.869 250.674C242.022 256.635 235.536 260.205 227.413 261.384C225.579 261.647 223.253 261.876 220.436 262.072C217.685 262.269 214.737 262.4 211.593 262.465C208.514 262.596 205.402 262.662 202.257 262.662C201.209 262.727 200.194 262.76 199.211 262.76C197.246 262.76 195.445 262.727 193.807 262.662C191.252 262.596 189.156 262.498 187.518 262.367C185.946 262.236 185.127 262.04 185.061 261.778C185.192 260.86 185.454 260.074 185.847 259.419C186.24 258.764 186.863 258.273 187.714 257.945C189.745 257.421 192.202 256.668 195.084 255.685C198.032 254.703 201.046 253.654 204.124 252.541C207.203 251.427 210.184 250.281 213.067 249.101C216.014 247.988 218.537 246.972 220.633 246.055C223.253 244.876 226.201 243.238 229.477 241.142C232.818 239.046 235.929 236.393 238.812 233.183C241.76 229.973 244.216 226.14 246.181 221.686C248.212 217.166 249.26 211.958 249.326 206.062V204.391C249.326 199.675 249.097 194.958 248.638 190.241C248.048 185.001 247.361 179.924 246.575 175.01C245.788 170.097 244.97 165.413 244.118 160.959C243.266 156.504 242.611 152.41 242.153 148.676C241.956 147.038 241.825 145.531 241.76 144.156C241.694 142.78 241.661 141.437 241.661 140.127C241.661 138.489 241.825 136.458 242.153 134.034C242.546 131.611 243.004 129.285 243.528 127.058C244.118 124.83 244.708 122.931 245.297 121.358C245.952 119.786 246.575 119 247.164 119C247.623 119 248.048 119.524 248.442 120.572C249.555 126.403 250.538 131.611 251.389 136.196C252.241 140.716 252.994 144.909 253.65 148.774C254.305 152.639 254.927 156.34 255.517 159.878C256.172 163.35 256.794 166.986 257.384 170.785C257.973 174.585 258.628 178.712 259.349 183.166C260.069 187.555 260.888 192.6 261.805 198.299C262.33 201.181 263.083 204.129 264.066 207.143C265.114 210.156 266.555 212.908 268.389 215.397C270.223 217.821 272.516 219.819 275.268 221.391C278.019 222.963 281.425 223.749 285.487 223.749V248.905ZM235.078 234.755L232.719 234.558C232.588 230.824 232.13 226.992 231.344 223.062C230.558 219.065 229.411 214.971 227.904 210.779C226.398 206.913 224.498 203.245 222.205 199.773C219.912 196.301 217.456 193.026 214.835 189.947C212.28 186.802 209.66 183.887 206.974 181.201C204.354 178.515 201.93 175.993 199.703 173.635C199.179 174.879 198.523 176.419 197.737 178.253C197.017 180.087 196.132 182.315 195.084 184.935C194.495 184.608 194.134 182.872 194.003 179.727C192.693 172.914 188.042 165.25 180.05 156.733L182.703 137.474C185.127 138.587 187.78 140.258 190.662 142.485C193.61 144.712 196.853 147.464 200.39 150.739C205.107 155.194 209.627 159.845 213.951 164.693C218.275 169.475 222.074 174.617 225.35 180.12C228.69 185.623 231.311 191.552 233.211 197.906C235.176 204.195 236.159 211.106 236.159 218.64C236.159 221.195 236.06 223.815 235.864 226.501C235.667 229.187 235.405 231.938 235.078 234.755Z" fill="url(#paint1_linear_90_8)"/>
<path d="M139.958 245.564C138.451 248.053 136.748 250.51 134.848 252.934C133.014 255.358 131.049 257.847 128.952 260.402C126.398 259.092 123.777 257.52 121.091 255.685C118.471 253.917 115.785 251.853 113.034 249.495C115.654 245.761 117.881 242.682 119.716 240.258C121.55 237.768 122.926 235.869 123.843 234.559C126.594 236.655 129.28 238.62 131.9 240.454C134.521 242.223 137.207 243.926 139.958 245.564ZM95.641 238.98C91.9725 242.714 88.6315 246.645 85.6181 250.772C82.6046 254.965 79.886 259.223 77.4622 263.546C75.1038 267.87 73.0403 272.194 71.2715 276.517C69.5683 280.841 68.1598 285.066 67.0462 289.193C66.5876 290.831 65.9653 291.65 65.1792 291.65H65.0809C64.3603 291.65 64 290.831 64 289.193C64.8516 279.17 66.1946 270.196 68.0288 262.269C69.8631 254.408 72.3852 247.267 75.5952 240.847C78.8051 234.362 82.7684 228.433 87.4851 223.062C92.2018 217.69 97.8683 212.482 104.485 207.438C104.878 207.176 105.074 206.848 105.074 206.455C104.943 206.324 104.878 206.095 104.878 205.767C102.061 205.767 99.5388 205.669 97.3115 205.472C95.0842 205.21 93.1189 205.079 91.4157 205.079C87.8126 205.079 84.4062 206.062 81.1962 208.027C78.0517 209.927 75.2676 212.351 72.8438 215.299C72.5162 215.626 72.0904 215.79 71.5663 215.79C70.9767 215.79 70.3872 215.561 69.7976 215.102C69.2735 214.578 68.946 214.021 68.8149 213.432V213.235C68.8149 212.187 69.3063 210.255 70.2889 207.438C71.2715 204.555 73.0075 200.461 75.4969 195.155C76.7416 192.338 78.1173 190.045 79.624 188.276C81.1962 186.442 82.8667 185.001 84.6354 183.953C86.4697 182.904 88.435 182.184 90.5313 181.791C92.6276 181.398 94.8876 181.201 97.3115 181.201C99.6043 181.201 102.028 181.332 104.583 181.594C107.138 181.856 109.857 182.151 112.739 182.479C115.621 182.741 118.668 183.003 121.877 183.265C125.087 183.527 128.461 183.658 131.999 183.658C137.698 183.658 142.808 183.494 147.328 183.166C151.914 182.773 156.27 182.511 160.397 182.38C162.493 182.38 163.574 183.396 163.64 185.427V185.82C163.64 186.999 163.378 188.604 162.854 190.635C162.329 192.6 161.642 194.631 160.79 196.727C160.004 198.758 159.087 200.592 158.039 202.23C157.056 203.867 156.041 204.916 154.992 205.374C153.944 206.291 152.143 207.077 149.588 207.732C147.033 208.388 144.347 208.944 141.53 209.403C133.604 211.237 125.841 214.709 118.242 219.819C110.708 224.863 103.175 231.25 95.641 238.98Z" fill="url(#paint2_linear_90_8)"/>
<defs>
<linearGradient id="paint0_linear_90_8" x1="208.572" y1="25.333" x2="208.572" y2="406.034" gradientUnits="userSpaceOnUse">
<stop offset="0.428244" stop-color="#6B88FE"/>
<stop offset="1" stop-color="#FF9393"/>
</linearGradient>
<linearGradient id="paint1_linear_90_8" x1="208.572" y1="25.3333" x2="208.572" y2="406.035" gradientUnits="userSpaceOnUse">
<stop offset="0.428244" stop-color="#6B88FE"/>
<stop offset="1" stop-color="#FF9393"/>
</linearGradient>
<linearGradient id="paint2_linear_90_8" x1="208.572" y1="25.3334" x2="208.572" y2="406.035" gradientUnits="userSpaceOnUse">
<stop offset="0.428244" stop-color="#6B88FE"/>
<stop offset="1" stop-color="#FF9393"/>
</linearGradient>
</defs>
</svg>
